<svg preserveAspectRatio="none" width="100%" height="100%" overflow="visible" style="display: block;" viewBox="0 0 25.8212 19.57" fill="none" xmlns="http://www.w3.org/2000/svg">
<g id="Discord Logo - Large - White">
<path id="Vector" d="M21.873 1.63896C20.1766 0.862266 18.3856 0.311255 16.5459 0C16.2942 0.450029 16.0664 0.913049 15.8635 1.38712C13.9039 1.09183 11.9111 1.09183 9.95152 1.38712C9.74854 0.913098 9.52076 0.450084 9.26912 0C7.42827 0.313884 5.63613 0.866202 3.93794 1.64302C0.566609 6.63097 -0.347308 11.495 0.10965 16.2901C2.08399 17.7488 4.29384 18.8582 6.64314 19.57C7.17213 18.8585 7.64022 18.1037 8.04245 17.3136C7.27848 17.0283 6.54112 16.6763 5.83889 16.2616C6.02371 16.1276 6.20446 15.9895 6.37912 15.8554C8.42243 16.8164 10.6526 17.3146 12.9106 17.3146C15.1686 17.3146 17.3987 16.8164 19.442 15.8554C19.6187 15.9996 19.7995 16.1377 19.9823 16.2616C19.2787 16.6769 18.54 17.0297 17.7746 17.3157C18.1764 18.1054 18.6445 18.8596 19.1739 19.57C21.5253 18.861 23.7368 17.7522 25.7115 16.2921C26.2477 10.7314 24.7955 5.91202 21.873 1.63896ZM8.62126 13.3412C7.34787 13.3412 6.29585 12.1856 6.29585 10.7639C6.29585 9.34226 7.31131 8.17651 8.6172 8.17651C9.92308 8.17651 10.967 9.34226 10.9446 10.7639C10.9223 12.1856 9.91902 13.3412 8.62126 13.3412ZM17.1999 13.3412C15.9245 13.3412 14.8765 12.1856 14.8765 10.7639C14.8765 9.34226 15.892 8.17651 17.1999 8.17651C18.5078 8.17651 19.5436 9.34226 19.5212 10.7639C19.4989 12.1856 18.4976 13.3412 17.1999 13.3412Z" fill="var(--fill-0, white)"/>
</g>
</svg>
