<svg preserveAspectRatio="none" width="100%" height="100%" overflow="visible" style="display: block;" viewBox="0 0 48.3607 48.0006" fill="none" xmlns="http://www.w3.org/2000/svg">
<path id="Union" d="M19.0686 0.0798845C21.801 -0.444294 24.3239 1.67896 24.2737 4.46074L24.1672 10.3436C24.1241 12.7251 24.9675 14.8398 26.3498 16.451C28.3782 15.8235 30.2194 14.4841 31.4514 12.4451L34.4944 7.40899C35.9332 5.02764 39.198 4.5738 41.2317 6.47246C42.9998 8.12332 43.0953 10.8947 41.4446 12.6629L37.76 16.6092C37.0084 17.4142 36.4203 18.3133 35.9914 19.2645C36.2815 19.1748 36.5715 19.0708 36.8596 18.95L42.2854 16.6746C44.8511 15.5985 47.7573 17.156 48.2815 19.8885C48.7372 22.2641 47.1804 24.5595 44.8049 25.0154L39.5022 26.033C38.2324 26.2766 37.0687 26.7573 36.0451 27.4178C36.5598 28.5219 37.2886 29.5491 38.2336 30.4314L42.1369 34.075C43.9288 35.7483 44.0248 38.5573 42.3518 40.3494C40.457 42.3788 37.1849 42.1911 35.5354 39.9578L32.1428 35.3641C31.9728 35.1339 31.7946 34.9146 31.6096 34.7059C31.5235 35.6102 31.5607 36.542 31.7405 37.4793L32.7463 42.7225C33.2083 45.1305 31.6309 47.4578 29.2229 47.9197C26.4961 48.4428 23.9632 46.3622 23.9465 43.5857L23.9123 37.8748C23.8988 35.6404 23.1102 33.6517 21.8352 32.1043C19.9324 32.7351 18.2062 33.9989 17.0051 35.8826L13.9348 40.698C12.4421 43.0392 9.19079 43.4513 7.16136 41.5564C5.36939 39.8831 5.27336 37.0742 6.94652 35.282L10.5901 31.3787C11.2413 30.6813 11.7682 29.9125 12.177 29.1014C11.9095 29.1794 11.6423 29.2706 11.3762 29.3748L6.05882 31.4559C3.47328 32.4678 0.6034 30.8848 0.0803052 28.158C-0.381564 25.7501 1.19586 23.4237 3.60374 22.9617L8.84788 21.9559C10.1175 21.7123 11.2805 21.2304 12.3039 20.5701C11.7893 19.4663 11.0612 18.4396 10.1164 17.5574L6.17015 13.8729C4.40199 12.2219 4.30732 9.4496 5.95823 7.68145C7.85704 5.64824 11.1458 5.87727 12.7444 8.1541L16.1252 12.9705C16.3045 13.2259 16.4931 13.4689 16.6907 13.699C16.8344 12.6654 16.8171 11.5914 16.6096 10.5096L15.592 5.20684C15.1364 2.83119 16.693 0.535685 19.0686 0.0798845Z" fill="var(--fill-0, white)"/>
</svg>
