<svg width="49" height="48" viewBox="0 0 49 48" fill="none" xmlns="http://www.w3.org/2000/svg">
<path fill-rule="evenodd" clip-rule="evenodd" d="M19.0686 0.0798449C21.8011 -0.444279 24.323 1.6798 24.2727 4.46168L24.1662 10.3435C24.1231 12.7251 24.9675 14.8397 26.3498 16.4509C28.3782 15.8234 30.2194 14.4841 31.4514 12.4451L34.4934 7.40895C35.9322 5.02755 39.1979 4.57375 41.2316 6.47242C42.9997 8.12321 43.0951 10.8947 41.4445 12.6629L37.76 16.6091C37.0084 17.4141 36.4202 18.3134 35.9914 19.2644C36.2814 19.1748 36.5716 19.0717 36.8596 18.9509L42.2854 16.6746C44.8509 15.5988 47.7562 17.1562 48.2805 19.8884C48.7362 22.2642 47.1797 24.5596 44.8039 25.0154L39.5022 26.033C38.2324 26.2765 37.0687 26.7573 36.0451 27.4177C36.5598 28.5219 37.2885 29.549 38.2336 30.4314L42.1359 34.075C43.9281 35.7483 44.0251 38.5582 42.3518 40.3504C40.4569 42.3797 37.1849 42.1911 35.5354 39.9578L32.1428 35.364C31.9729 35.1341 31.7945 34.9153 31.6096 34.7068C31.5236 35.611 31.5607 36.5423 31.7404 37.4793L32.7463 42.7234C33.208 45.1312 31.6307 47.4577 29.2229 47.9197C26.496 48.4428 23.9631 46.3622 23.9465 43.5857L23.9123 37.8757C23.8989 35.6414 23.11 33.6526 21.8352 32.1052C19.9323 32.7361 18.2062 33.9997 17.0051 35.8836L13.9348 40.698C12.4421 43.0392 9.19076 43.4513 7.16133 41.5564C5.36933 39.8831 5.27321 37.0741 6.94649 35.282L10.59 31.3787C11.2411 30.6814 11.7683 29.9132 12.177 29.1023C11.9095 29.1803 11.6423 29.2706 11.3762 29.3748L6.05782 31.4558C3.47234 32.4676 0.603355 30.8847 0.0802767 28.158C-0.381485 25.7501 1.1958 23.4236 3.60371 22.9617L8.84785 21.9558C10.1175 21.7122 11.2804 21.2304 12.3039 20.5701C11.7893 19.4663 11.0612 18.4395 10.1164 17.5574L6.17012 13.8728C4.40211 12.222 4.30672 9.45056 5.95723 7.68238C7.85609 5.64868 11.1458 5.87773 12.7443 8.15504L16.1242 12.9705C16.3036 13.226 16.493 13.4688 16.6906 13.699C16.8343 12.6654 16.8171 11.5914 16.6096 10.5095L15.592 5.2068C15.1365 2.83117 16.6929 0.535573 19.0686 0.0798449Z" fill="#222222"/>
</svg>
