<svg width="187" height="48" viewBox="0 0 187 48" fill="none" xmlns="http://www.w3.org/2000/svg">
<path fill-rule="evenodd" clip-rule="evenodd" d="M19.0686 0.0798449C21.8011 -0.444279 24.323 1.6798 24.2727 4.46168L24.1662 10.3435C24.1231 12.7251 24.9675 14.8397 26.3498 16.4509C28.3782 15.8234 30.2194 14.4841 31.4514 12.4451L34.4934 7.40895C35.9322 5.02755 39.1979 4.57375 41.2316 6.47242C42.9997 8.12321 43.0951 10.8947 41.4445 12.6629L37.76 16.6091C37.0084 17.4141 36.4202 18.3134 35.9914 19.2644C36.2814 19.1748 36.5716 19.0717 36.8596 18.9509L42.2854 16.6746C44.8509 15.5988 47.7562 17.1562 48.2805 19.8884C48.7362 22.2642 47.1797 24.5596 44.8039 25.0154L39.5022 26.033C38.2324 26.2765 37.0687 26.7573 36.0451 27.4177C36.5598 28.5219 37.2885 29.549 38.2336 30.4314L42.1359 34.075C43.9281 35.7483 44.0251 38.5582 42.3518 40.3504C40.4569 42.3797 37.1849 42.1911 35.5354 39.9578L32.1428 35.364C31.9729 35.1341 31.7945 34.9153 31.6096 34.7068C31.5236 35.611 31.5607 36.5423 31.7404 37.4793L32.7463 42.7234C33.208 45.1312 31.6307 47.4577 29.2229 47.9197C26.496 48.4428 23.9631 46.3622 23.9465 43.5857L23.9123 37.8757C23.8989 35.6414 23.11 33.6526 21.8352 32.1052C19.9323 32.7361 18.2062 33.9997 17.0051 35.8836L13.9348 40.698C12.4421 43.0392 9.19076 43.4513 7.16133 41.5564C5.36933 39.8831 5.27321 37.0741 6.94649 35.282L10.59 31.3787C11.2411 30.6814 11.7683 29.9132 12.177 29.1023C11.9095 29.1803 11.6423 29.2706 11.3762 29.3748L6.05782 31.4558C3.47234 32.4676 0.603355 30.8847 0.0802767 28.158C-0.381485 25.7501 1.1958 23.4236 3.60371 22.9617L8.84785 21.9558C10.1175 21.7122 11.2804 21.2304 12.3039 20.5701C11.7893 19.4663 11.0612 18.4395 10.1164 17.5574L6.17012 13.8728C4.40211 12.222 4.30672 9.45056 5.95723 7.68238C7.85609 5.64868 11.1458 5.87773 12.7443 8.15504L16.1242 12.9705C16.3036 13.226 16.493 13.4688 16.6906 13.699C16.8343 12.6654 16.8171 11.5914 16.6096 10.5095L15.592 5.2068C15.1365 2.83117 16.6929 0.535573 19.0686 0.0798449Z" fill="#222222"/>
<path d="M64.5394 28.4202H66.9794C67.5927 28.4202 68.166 28.3136 68.6994 28.1002C69.246 27.8736 69.7194 27.5602 70.1194 27.1602C70.5194 26.7602 70.8327 26.2936 71.0594 25.7602C71.286 25.2269 71.3994 24.6469 71.3994 24.0202C71.3994 23.3936 71.286 22.8136 71.0594 22.2802C70.8327 21.7336 70.5194 21.2602 70.1194 20.8602C69.7194 20.4602 69.246 20.1469 68.6994 19.9202C68.166 19.6936 67.5927 19.5802 66.9794 19.5802H64.5394V28.4202ZM61.6194 31.0002V17.0002H66.9994C68.0527 17.0002 69.026 17.1802 69.9194 17.5402C70.8127 17.8869 71.5927 18.3802 72.2594 19.0202C72.926 19.6602 73.446 20.4069 73.8194 21.2602C74.206 22.1136 74.3994 23.0336 74.3994 24.0202C74.3994 25.0069 74.2127 25.9269 73.8394 26.7802C73.466 27.6202 72.9394 28.3602 72.2594 29.0002C71.5927 29.6269 70.8127 30.1202 69.9194 30.4802C69.026 30.8269 68.0527 31.0002 66.9994 31.0002H61.6194ZM81.105 31.2002C80.065 31.2002 79.1183 30.9602 78.265 30.4802C77.425 30.0002 76.7583 29.3536 76.265 28.5402C75.7717 27.7269 75.525 26.8136 75.525 25.8002C75.525 24.7869 75.7583 23.8736 76.225 23.0602C76.705 22.2469 77.3517 21.6002 78.165 21.1202C78.9783 20.6402 79.885 20.4002 80.885 20.4002C81.885 20.4002 82.7717 20.6469 83.545 21.1402C84.3183 21.6202 84.925 22.2869 85.365 23.1402C85.8183 23.9802 86.045 24.9336 86.045 26.0002V26.7202H78.325C78.445 27.1336 78.6383 27.5069 78.905 27.8402C79.185 28.1736 79.525 28.4336 79.925 28.6202C80.3383 28.7936 80.7783 28.8802 81.245 28.8802C81.7117 28.8802 82.1383 28.8136 82.525 28.6802C82.925 28.5336 83.265 28.3269 83.545 28.0602L85.345 29.7002C84.705 30.2202 84.045 30.6002 83.365 30.8402C82.6983 31.0802 81.945 31.2002 81.105 31.2002ZM78.285 24.7602H83.345C83.2517 24.3469 83.0783 23.9869 82.825 23.6802C82.585 23.3602 82.2917 23.1136 81.945 22.9402C81.6117 22.7536 81.2383 22.6602 80.825 22.6602C80.4117 22.6602 80.0317 22.7469 79.685 22.9202C79.3383 23.0936 79.045 23.3402 78.805 23.6602C78.565 23.9669 78.3917 24.3336 78.285 24.7602ZM88.8308 31.0002V22.8802H86.5108V20.5802H88.8308V19.5802C88.8308 18.4069 89.1708 17.5136 89.8508 16.9002C90.5441 16.2736 91.5241 15.9602 92.7908 15.9602C93.0708 15.9602 93.3574 15.9736 93.6508 16.0002C93.9441 16.0269 94.1974 16.0736 94.4108 16.1402V18.4402C94.1708 18.3869 93.9508 18.3469 93.7508 18.3202C93.5641 18.2936 93.3641 18.2802 93.1508 18.2802C92.6308 18.2802 92.2374 18.3936 91.9708 18.6202C91.7041 18.8336 91.5708 19.1736 91.5708 19.6402V20.5802H94.4108V22.8802H91.5708V31.0002H88.8308ZM95.8508 31.0002V20.5802H98.5908V31.0002H95.8508ZM97.2108 19.3402C96.7841 19.3402 96.4174 19.1869 96.1108 18.8802C95.8041 18.5736 95.6508 18.2069 95.6508 17.7802C95.6508 17.3402 95.8041 16.9736 96.1108 16.6802C96.4174 16.3736 96.7841 16.2202 97.2108 16.2202C97.6508 16.2202 98.0174 16.3736 98.3108 16.6802C98.6174 16.9736 98.7708 17.3402 98.7708 17.7802C98.7708 18.2069 98.6174 18.5736 98.3108 18.8802C98.0174 19.1869 97.6508 19.3402 97.2108 19.3402ZM109.53 31.2002C108.397 31.2002 107.29 30.9936 106.21 30.5802C105.13 30.1536 104.17 29.5536 103.33 28.7802L104.99 26.7002C105.817 27.4069 106.604 27.9269 107.35 28.2602C108.097 28.5802 108.89 28.7402 109.73 28.7402C110.317 28.7402 110.824 28.6736 111.25 28.5402C111.677 28.3936 112.004 28.1869 112.23 27.9202C112.47 27.6536 112.59 27.3402 112.59 26.9802C112.59 26.5002 112.417 26.1336 112.07 25.8802C111.724 25.6136 111.13 25.4069 110.29 25.2602L107.51 24.8002C106.324 24.5869 105.417 24.1602 104.79 23.5202C104.177 22.8802 103.87 22.0536 103.87 21.0402C103.87 20.1736 104.09 19.4202 104.53 18.7802C104.984 18.1402 105.617 17.6536 106.43 17.3202C107.257 16.9736 108.237 16.8002 109.37 16.8002C110.397 16.8002 111.424 16.9736 112.45 17.3202C113.477 17.6669 114.377 18.1469 115.15 18.7602L113.59 20.9202C112.124 19.8002 110.657 19.2402 109.19 19.2402C108.657 19.2402 108.197 19.3069 107.81 19.4402C107.424 19.5736 107.124 19.7602 106.91 20.0002C106.71 20.2269 106.61 20.5002 106.61 20.8202C106.61 21.2469 106.764 21.5802 107.07 21.8202C107.39 22.0469 107.904 22.2202 108.61 22.3402L111.25 22.7802C112.65 23.0069 113.697 23.4536 114.39 24.1202C115.097 24.7736 115.45 25.6402 115.45 26.7202C115.45 27.6269 115.204 28.4202 114.71 29.1002C114.23 29.7669 113.544 30.2869 112.65 30.6602C111.77 31.0202 110.73 31.2002 109.53 31.2002ZM118.474 31.0002L115.614 20.5802H118.214L119.954 27.3002L122.014 20.5802H124.314L126.374 27.3202L128.094 20.5802H130.654L127.774 31.0002H125.154L123.134 24.3402L121.114 31.0002H118.474ZM136.648 31.2002C135.608 31.2002 134.661 30.9602 133.808 30.4802C132.968 30.0002 132.301 29.3536 131.808 28.5402C131.315 27.7269 131.068 26.8136 131.068 25.8002C131.068 24.7869 131.301 23.8736 131.768 23.0602C132.248 22.2469 132.895 21.6002 133.708 21.1202C134.521 20.6402 135.428 20.4002 136.428 20.4002C137.428 20.4002 138.315 20.6469 139.088 21.1402C139.861 21.6202 140.468 22.2869 140.908 23.1402C141.361 23.9802 141.588 24.9336 141.588 26.0002V26.7202H133.868C133.988 27.1336 134.181 27.5069 134.448 27.8402C134.728 28.1736 135.068 28.4336 135.468 28.6202C135.881 28.7936 136.321 28.8802 136.788 28.8802C137.255 28.8802 137.681 28.8136 138.068 28.6802C138.468 28.5336 138.808 28.3269 139.088 28.0602L140.888 29.7002C140.248 30.2202 139.588 30.6002 138.908 30.8402C138.241 31.0802 137.488 31.2002 136.648 31.2002ZM133.828 24.7602H138.888C138.795 24.3469 138.621 23.9869 138.368 23.6802C138.128 23.3602 137.835 23.1136 137.488 22.9402C137.155 22.7536 136.781 22.6602 136.368 22.6602C135.955 22.6602 135.575 22.7469 135.228 22.9202C134.881 23.0936 134.588 23.3402 134.348 23.6602C134.108 23.9669 133.935 24.3336 133.828 24.7602ZM148.245 31.2002C147.205 31.2002 146.258 30.9602 145.405 30.4802C144.565 30.0002 143.898 29.3536 143.405 28.5402C142.912 27.7269 142.665 26.8136 142.665 25.8002C142.665 24.7869 142.898 23.8736 143.365 23.0602C143.845 22.2469 144.492 21.6002 145.305 21.1202C146.118 20.6402 147.025 20.4002 148.025 20.4002C149.025 20.4002 149.912 20.6469 150.685 21.1402C151.458 21.6202 152.065 22.2869 152.505 23.1402C152.958 23.9802 153.185 24.9336 153.185 26.0002V26.7202H145.465C145.585 27.1336 145.778 27.5069 146.045 27.8402C146.325 28.1736 146.665 28.4336 147.065 28.6202C147.478 28.7936 147.918 28.8802 148.385 28.8802C148.852 28.8802 149.278 28.8136 149.665 28.6802C150.065 28.5336 150.405 28.3269 150.685 28.0602L152.485 29.7002C151.845 30.2202 151.185 30.6002 150.505 30.8402C149.838 31.0802 149.085 31.2002 148.245 31.2002ZM145.425 24.7602H150.485C150.392 24.3469 150.218 23.9869 149.965 23.6802C149.725 23.3602 149.432 23.1136 149.085 22.9402C148.752 22.7536 148.378 22.6602 147.965 22.6602C147.552 22.6602 147.172 22.7469 146.825 22.9202C146.478 23.0936 146.185 23.3402 145.945 23.6602C145.705 23.9669 145.532 24.3336 145.425 24.7602ZM154.664 35.0802V20.5802H157.364V21.4402C158.217 20.7736 159.204 20.4402 160.324 20.4402C161.31 20.4402 162.204 20.6802 163.004 21.1602C163.804 21.6402 164.437 22.2869 164.904 23.1002C165.384 23.9002 165.624 24.8002 165.624 25.8002C165.624 26.8002 165.384 27.7069 164.904 28.5202C164.424 29.3202 163.777 29.9602 162.964 30.4402C162.164 30.9069 161.257 31.1402 160.244 31.1402C159.724 31.1402 159.224 31.0736 158.744 30.9402C158.264 30.7936 157.817 30.5869 157.404 30.3202V35.0802H154.664ZM159.884 28.8202C160.457 28.8202 160.97 28.6869 161.424 28.4202C161.89 28.1536 162.257 27.7936 162.524 27.3402C162.79 26.8869 162.924 26.3736 162.924 25.8002C162.924 25.2269 162.79 24.7136 162.524 24.2602C162.257 23.8069 161.89 23.4469 161.424 23.1802C160.97 22.9136 160.457 22.7802 159.884 22.7802C159.377 22.7802 158.91 22.8669 158.484 23.0402C158.07 23.2136 157.71 23.4602 157.404 23.7802V27.8402C157.697 28.1336 158.057 28.3736 158.484 28.5602C158.924 28.7336 159.39 28.8202 159.884 28.8202ZM172.2 31.2002C171.16 31.2002 170.214 30.9602 169.36 30.4802C168.52 30.0002 167.854 29.3536 167.36 28.5402C166.867 27.7269 166.62 26.8136 166.62 25.8002C166.62 24.7869 166.854 23.8736 167.32 23.0602C167.8 22.2469 168.447 21.6002 169.26 21.1202C170.074 20.6402 170.98 20.4002 171.98 20.4002C172.98 20.4002 173.867 20.6469 174.64 21.1402C175.414 21.6202 176.02 22.2869 176.46 23.1402C176.914 23.9802 177.14 24.9336 177.14 26.0002V26.7202H169.42C169.54 27.1336 169.734 27.5069 170 27.8402C170.28 28.1736 170.62 28.4336 171.02 28.6202C171.434 28.7936 171.874 28.8802 172.34 28.8802C172.807 28.8802 173.234 28.8136 173.62 28.6802C174.02 28.5336 174.36 28.3269 174.64 28.0602L176.44 29.7002C175.8 30.2202 175.14 30.6002 174.46 30.8402C173.794 31.0802 173.04 31.2002 172.2 31.2002ZM169.38 24.7602H174.44C174.347 24.3469 174.174 23.9869 173.92 23.6802C173.68 23.3602 173.387 23.1136 173.04 22.9402C172.707 22.7536 172.334 22.6602 171.92 22.6602C171.507 22.6602 171.127 22.7469 170.78 22.9202C170.434 23.0936 170.14 23.3402 169.9 23.6602C169.66 23.9669 169.487 24.3336 169.38 24.7602ZM178.619 31.0002V20.5802H181.359V21.7402C181.692 21.2869 182.092 20.9402 182.559 20.7002C183.026 20.4602 183.552 20.3402 184.139 20.3402C184.646 20.3536 185.026 20.4269 185.279 20.5602V22.9802C185.079 22.8869 184.859 22.8202 184.619 22.7802C184.379 22.7269 184.132 22.7002 183.879 22.7002C183.346 22.7002 182.859 22.8336 182.419 23.1002C181.979 23.3669 181.626 23.7469 181.359 24.2402V31.0002H178.619Z" fill="#222222"/>
</svg>
