<svg preserveAspectRatio="none" width="100%" height="100%" overflow="visible" style="display: block;" viewBox="0 0 20 20" fill="none" xmlns="http://www.w3.org/2000/svg">
<g id="wallet-05">
<path id="Vector" d="M1.66602 10C1.66602 6.8573 1.66602 5.28596 2.64232 4.30964C3.61864 3.33333 5.18998 3.33333 8.33268 3.33333H11.666C14.8087 3.33333 16.3801 3.33333 17.3563 4.30964C18.3327 5.28596 18.3327 6.8573 18.3327 10C18.3327 13.1427 18.3327 14.7141 17.3563 15.6903C16.3801 16.6667 14.8087 16.6667 11.666 16.6667H8.33268C5.18998 16.6667 3.61864 16.6667 2.64232 15.6903C1.66602 14.7141 1.66602 13.1427 1.66602 10Z" stroke="var(--stroke-0, white)" stroke-width="1.5" stroke-linecap="round" stroke-linejoin="round"/>
<path id="Vector_2" d="M1.66602 8.33333H5.1637C5.75917 8.33333 6.05692 8.33333 6.32395 8.42667C6.48702 8.48367 6.64023 8.56567 6.77811 8.66975C7.00388 8.84017 7.16904 9.08783 7.49935 9.58333C7.82966 10.0788 7.99482 10.3265 8.22059 10.4969C8.35843 10.601 8.51168 10.683 8.67477 10.74C8.94177 10.8333 9.23952 10.8333 9.83502 10.8333H10.1637C10.7592 10.8333 11.0569 10.8333 11.3239 10.74C11.487 10.683 11.6403 10.601 11.7781 10.4969C12.0038 10.3265 12.169 10.0788 12.4993 9.58333C12.8297 9.08783 12.9948 8.84017 13.2206 8.66975C13.3584 8.56567 13.5117 8.48367 13.6748 8.42667C13.9418 8.33333 14.2395 8.33333 14.835 8.33333H18.3327" stroke="var(--stroke-0, white)" stroke-width="1.25" stroke-linecap="round" stroke-linejoin="round"/>
</g>
</svg>
