<svg preserveAspectRatio="none" width="100%" height="100%" overflow="visible" style="display: block;" viewBox="0 0 160 160" fill="none" xmlns="http://www.w3.org/2000/svg">
<g id="artificial-intelligence-04">
<path id="Vector (Stroke)" d="M101.666 146.668V138.027C96.7898 138.274 91.2575 138.322 85.0003 138.331V146.668C85.0003 149.429 82.7616 151.668 80.0003 151.668C77.2389 151.668 75.0003 149.429 75.0003 146.668V138.331C68.7428 138.322 63.2101 138.274 58.3333 138.027V146.668C58.3333 149.429 56.0948 151.668 53.3333 151.668C50.5719 151.668 48.3333 149.429 48.3333 146.668V137.055C41.3123 135.913 35.5552 133.673 30.9417 129.06C26.3282 124.446 24.0887 118.689 22.9466 111.668H13.3333C10.5719 111.668 8.33333 109.429 8.33333 106.668C8.33351 103.907 10.572 101.668 13.3333 101.668H21.973C21.7268 96.7915 21.6784 91.2591 21.6693 85.002H13.3333C10.572 85.002 8.33351 82.7632 8.33333 80.002C8.33333 77.2405 10.5719 75.002 13.3333 75.002H21.6693C21.6784 68.7444 21.7267 63.2117 21.973 58.335H13.3333C10.5719 58.335 8.33333 56.0964 8.33333 53.335C8.33333 50.5735 10.5719 48.335 13.3333 48.335H22.9466C24.0888 41.3139 26.3283 35.5569 30.9417 30.9434C35.5553 26.3299 41.3122 24.0894 48.3333 22.9473V13.335C48.3333 10.5735 50.5719 8.33496 53.3333 8.33496C56.0948 8.33496 58.3333 10.5735 58.3333 13.335V21.9746C63.2101 21.7284 68.7428 21.68 75.0003 21.6709V13.335C75.0003 10.5735 77.2389 8.33496 80.0003 8.33496C82.7616 8.33514 85.0003 10.5736 85.0003 13.335V21.6709C91.2574 21.68 96.7898 21.7284 101.666 21.9746V13.335C101.666 10.5736 103.905 8.33513 106.666 8.33496C109.428 8.33496 111.666 10.5735 111.666 13.335V22.9473C118.688 24.0894 124.445 26.3298 129.058 30.9434C133.672 35.5569 135.911 41.3139 137.053 48.335H146.666C149.428 48.335 151.666 50.5735 151.666 53.335C151.666 56.0964 149.428 58.335 146.666 58.335H138.027C138.273 63.2117 138.321 68.7444 138.33 75.002H146.666C149.428 75.002 151.666 77.2405 151.666 80.002C151.666 82.7632 149.428 85.002 146.666 85.002H138.33C138.321 91.2591 138.273 96.7914 138.027 101.668H146.666C149.428 101.668 151.666 103.907 151.666 106.668C151.666 109.429 149.428 111.668 146.666 111.668H137.053C135.911 118.689 133.672 124.446 129.058 129.06C124.445 133.673 118.687 135.913 111.666 137.055V146.668C111.666 149.429 109.428 151.668 106.666 151.668C103.905 151.668 101.666 149.429 101.666 146.668ZM80.0003 31.668C67.2882 31.668 58.2567 31.6785 51.4056 32.5996C44.6984 33.5014 40.8344 35.1933 38.013 38.0146C35.1916 40.8361 33.4997 44.7 32.598 51.4072C31.6769 58.2583 31.6663 67.2898 31.6663 80.002C31.6663 92.7136 31.6769 101.745 32.598 108.596C33.4998 115.303 35.1918 119.167 38.013 121.988V121.989C40.8344 124.81 44.6987 126.502 51.4056 127.403C58.2567 128.324 67.2882 128.335 80.0003 128.335C92.712 128.335 101.743 128.324 108.594 127.403C115.301 126.502 119.166 124.81 121.987 121.989L121.988 121.988C124.809 119.167 126.5 115.303 127.402 108.596C128.323 101.745 128.333 92.7136 128.333 80.002C128.333 67.2898 128.323 58.2583 127.402 51.4072C126.5 44.7003 124.809 40.836 121.988 38.0146H121.987C119.166 35.1934 115.301 33.5014 108.594 32.5996C101.743 31.6786 92.712 31.668 80.0003 31.668ZM67.054 55.0098C71.0371 55.1691 74.5282 57.7755 75.7972 61.583L88.0765 98.4209C88.9495 101.041 87.534 103.872 84.9144 104.745C82.2948 105.618 79.4635 104.203 78.5902 101.583L75.2855 91.668H58.0482L54.7435 101.583C53.8702 104.202 51.0388 105.618 48.4193 104.745C45.7997 103.872 44.3833 101.04 45.2562 98.4209L57.5355 61.583L57.6654 61.2178C59.0761 57.4894 62.6532 55.0021 66.6663 55.002L67.054 55.0098ZM98.3333 100.002V60.002C98.3333 57.2405 100.572 55.002 103.333 55.002C106.095 55.002 108.333 57.2405 108.333 60.002V100.002C108.333 102.763 106.095 105.002 103.333 105.002C100.572 105.002 98.3335 102.763 98.3333 100.002ZM61.3822 81.668H71.9515L66.6663 65.8125L61.3822 81.668Z" fill="url(#paint0_linear_0_21)"/>
</g>
<defs>
<linearGradient id="paint0_linear_0_21" x1="79.9998" y1="151.668" x2="79.9998" y2="8.33496" gradientUnits="userSpaceOnUse">
<stop stop-color="#329F00"/>
<stop offset="1" stop-color="#80BA02"/>
</linearGradient>
</defs>
</svg>
