<svg preserveAspectRatio="none" width="100%" height="100%" overflow="visible" style="display: block;" viewBox="0 0 15.5382 15.5382" fill="none" xmlns="http://www.w3.org/2000/svg">
<path id="Vector" d="M6.62891 9.39335L4.84112 7.60555C4.71409 7.47852 4.55836 7.41501 4.37393 7.41501C4.18951 7.41501 4.0262 7.4849 3.88399 7.62468C3.75709 7.75465 3.69363 7.91171 3.69363 8.09588C3.69363 8.27992 3.75862 8.43546 3.88858 8.56249L6.16766 10.8607C6.29916 10.9907 6.45252 11.0556 6.62776 11.0556C6.80301 11.0556 6.95714 10.9907 7.09016 10.8607L11.6076 6.33869C11.7504 6.19891 11.8218 6.03757 11.8218 5.85468C11.8218 5.67178 11.7504 5.5093 11.6076 5.36722C11.4678 5.24019 11.3025 5.17986 11.1117 5.18624C10.9209 5.19262 10.7608 5.25932 10.6315 5.38635L6.62891 9.39335ZM7.7674 15.5382C6.70295 15.5382 5.69831 15.3349 4.75349 14.9283C3.8088 14.5217 2.98368 13.9657 2.27813 13.2601C1.57257 12.5546 1.0165 11.7296 0.609898 10.7853C0.203299 9.84102 0 8.83657 0 7.77199C0 6.69479 0.203299 5.68377 0.609898 4.73895C1.0165 3.79426 1.57232 2.97227 2.27736 2.27296C2.9824 1.57353 3.80721 1.01988 4.75177 0.612002C5.69634 0.204001 6.70104 0 7.76587 0C8.84333 0 9.85466 0.203873 10.7999 0.611619C11.7449 1.01937 12.567 1.5727 13.2661 2.27162C13.9652 2.97054 14.5187 3.79241 14.9264 4.73723C15.3343 5.68205 15.5382 6.69345 15.5382 7.77142C15.5382 8.83638 15.3342 9.84121 14.9262 10.7859C14.5184 11.7306 13.9647 12.5555 13.2653 13.2607C12.566 13.9659 11.7442 14.5217 10.7999 14.9283C9.85556 15.3349 8.84474 15.5382 7.7674 15.5382ZM7.76683 14.2348C9.56566 14.2348 11.0926 13.6051 12.3478 12.3457C13.6028 11.0861 14.2303 9.56132 14.2303 7.77142C14.2303 5.97259 13.6028 4.44561 12.3478 3.19049C11.0926 1.93549 9.56489 1.30799 7.76453 1.30799C5.97693 1.30799 4.45314 1.93549 3.19317 3.19049C1.93332 4.44561 1.3034 5.97335 1.3034 7.77371C1.3034 9.56132 1.93313 11.0851 3.19259 12.3451C4.45218 13.6049 5.97693 14.2348 7.76683 14.2348Z" fill="var(--fill-0, #6FA300)"/>
</svg>
