<svg preserveAspectRatio="none" width="100%" height="100%" overflow="visible" style="display: block;" viewBox="0 0 209 288.172" fill="none" xmlns="http://www.w3.org/2000/svg">
<g id="Content Container">
<g id="Vector">
<path fill-rule="evenodd" clip-rule="evenodd" d="M108.055 0.50418C118.24 0.586408 128.327 2.13153 138.012 5.06641C131.508 3.77676 124.876 3.09469 118.202 3.0408C59.5303 2.52326 11.105 50.1333 10.6504 108.737C10.5517 120.314 12.3393 131.825 15.9391 142.818L16.6823 145.01C17.7213 147.983 19.6558 150.563 22.2188 152.394C22.3671 152.5 22.5172 152.604 22.6688 152.704L20.8836 152.704C17.723 152.69 14.6437 151.695 12.0723 149.858C9.50929 148.026 7.57484 145.447 6.53578 142.473L5.79263 140.281C2.19282 129.288 0.405245 117.777 0.503869 106.2C0.958539 47.5967 49.3839 -0.0133635 108.055 0.50418Z" fill="white"/>
<path d="M206.271 20.4901C203.3 17.5184 198.482 17.5184 195.51 20.4901L98.814 117.187L109.575 127.947L206.271 31.2509C209.243 28.2792 209.243 23.4619 206.271 20.4901ZM141.485 37.4421C130.037 33.5979 117.838 32.5322 105.897 34.3308C93.9569 36.1295 82.6142 40.7413 72.8074 47.7868C63.0005 54.8324 55.0101 64.11 49.4947 74.8524C43.9794 85.5946 41.0975 97.502 41.0872 109.577C41.0873 112.398 41.2438 115.216 41.5529 118.02L56.6785 116.352C56.4306 114.104 56.3073 111.844 56.307 109.582C56.3153 99.9204 58.6219 90.3986 63.035 81.8033C67.4481 73.2081 73.8412 65.7853 81.6881 60.1479C89.5352 54.5103 98.612 50.8187 108.167 49.3796C117.721 47.9407 127.48 48.7958 136.639 51.8716L141.485 37.4421Z" fill="var(--fill-0, black)"/>
<path d="M118.202 3.0408C124.876 3.09469 131.508 3.77676 138.012 5.06641C128.327 2.13153 118.24 0.586408 108.055 0.50418C49.3839 -0.0133635 0.958539 47.5967 0.503869 106.2C0.405245 117.777 2.19282 129.288 5.79263 140.281L6.53578 142.473C7.57484 145.447 9.50929 148.026 12.0723 149.858C14.6437 151.695 17.723 152.69 20.8836 152.704L22.6688 152.704C22.5172 152.604 22.3671 152.5 22.2188 152.394C19.6558 150.563 17.7213 147.983 16.6823 145.01L15.9391 142.818C12.3393 131.825 10.5517 120.314 10.6504 108.737C11.105 50.1333 59.5303 2.52326 118.202 3.0408ZM118.202 3.0408L118.204 3.03833M206.271 20.4901C203.3 17.5184 198.482 17.5184 195.51 20.4901L98.814 117.187L109.575 127.947L206.271 31.2509C209.243 28.2792 209.243 23.4619 206.271 20.4901ZM141.485 37.4421C130.037 33.5979 117.838 32.5322 105.897 34.3308C93.9569 36.1295 82.6142 40.7413 72.8074 47.7868C63.0005 54.8324 55.0101 64.11 49.4947 74.8524C43.9794 85.5946 41.0975 97.502 41.0872 109.577C41.0873 112.398 41.2438 115.216 41.5529 118.02L56.6785 116.352C56.4306 114.104 56.3073 111.844 56.307 109.582C56.3153 99.9204 58.6219 90.3986 63.035 81.8033C67.4481 73.2081 73.8412 65.7853 81.6881 60.1479C89.5352 54.5103 98.612 50.8187 108.167 49.3796C117.721 47.9407 127.48 48.7958 136.639 51.8716L141.485 37.4421Z" stroke="var(--stroke-0, black)" stroke-linejoin="round"/>
</g>
<g id="Graphic Container" opacity="0.5">
<path id="70" d="M127.102 156.252C131.41 156.252 135.12 157.527 138.208 160.088H138.209C141.352 162.642 143.755 166.293 145.436 171.012L145.741 171.896C147.219 176.371 147.952 181.654 147.952 187.733C147.952 194.345 147.118 199.987 145.436 204.646L145.435 204.648C143.753 209.24 141.348 212.765 138.202 215.19C135.113 217.622 131.406 218.831 127.102 218.831C122.797 218.831 119.058 217.623 115.907 215.194L115.903 215.191C112.821 212.765 110.449 209.24 108.768 204.648L108.767 204.646C107.084 199.987 106.25 194.345 106.25 187.733C106.25 181.654 106.983 176.371 108.461 171.896L108.767 171.012C110.447 166.295 112.817 162.645 115.895 160.091L115.898 160.088C119.049 157.528 122.791 156.252 127.102 156.252ZM98.1533 157.113V163.593L98.1192 163.676C96.3318 168.017 94.5442 172.389 92.7569 176.794C91.0354 181.129 89.3782 185.529 87.7842 189.992L87.7832 189.994C86.189 194.394 84.6254 198.89 83.0947 203.481L83.0957 203.482C81.6285 208.012 80.1927 212.637 78.7891 217.358L78.6934 217.683H66.5244L66.7207 217.088C68.6367 211.276 70.5527 205.592 72.4688 200.035L72.4697 200.031C74.45 194.474 76.4946 188.916 78.6026 183.358C80.632 178.008 82.7224 172.659 84.8701 167.309H61.0479V157.113H98.1533ZM119.131 202.526C119.813 204.469 120.67 206.009 121.693 207.16C123.14 208.788 124.933 209.595 127.102 209.595C129.27 209.595 131.062 208.788 132.509 207.16C133.972 205.514 135.098 203.073 135.855 199.794C136.611 196.518 136.991 192.5 136.991 187.733C136.991 185.625 136.913 183.667 136.761 181.859L119.131 202.526ZM127.102 165.872C124.939 165.872 123.148 166.705 121.699 168.396C120.231 170.108 119.105 172.586 118.349 175.864V175.865H118.348C117.592 179.077 117.211 183.031 117.211 187.733C117.211 189.923 117.293 191.955 117.453 193.829L135.052 173.066C134.372 171.135 133.521 169.582 132.504 168.396C131.055 166.705 129.264 165.872 127.102 165.872Z" fill="var(--fill-0, #8F5E00)" stroke="var(--stroke-0, black)" stroke-width="0.905264"/>
<path id="60" d="M118.014 226.977C120.52 226.977 122.679 227.72 124.476 229.21H124.475C126.302 230.695 127.699 232.817 128.675 235.558L128.853 236.072C129.712 238.673 130.137 241.742 130.137 245.274C130.137 249.114 129.653 252.392 128.675 255.1L128.674 255.101C127.697 257.77 126.298 259.821 124.468 261.232L124.467 261.231C122.671 262.644 120.516 263.347 118.014 263.347C115.512 263.347 113.337 262.644 111.504 261.232L111.502 261.23C109.71 259.819 108.33 257.769 107.353 255.101V255.1C106.375 252.392 105.89 249.114 105.89 245.274C105.89 241.507 106.375 238.266 107.353 235.558C108.329 232.818 109.707 230.695 111.497 229.21L111.498 229.208C113.331 227.719 115.508 226.977 118.014 226.977ZM92.1547 226.921C93.7064 226.921 95.2735 227.205 96.8549 227.769H96.8559C98.4918 228.302 99.9208 229.178 101.138 230.395L101.324 230.581L101.148 230.778L97.7094 234.603L97.3823 235.041L97.2153 235.263L96.9926 235.096L96.5473 234.763L96.4536 234.692L96.4389 234.575C96.4084 234.33 96.3196 234.15 96.184 234.014L96.1752 234.005L96.1674 233.995C96.0084 233.805 95.7033 233.547 95.2309 233.219C94.997 233.087 94.7464 232.986 94.478 232.919C94.1921 232.848 93.9067 232.794 93.6215 232.758C93.3376 232.723 93.0339 232.705 92.7104 232.705C92.1789 232.705 91.6073 232.776 90.9946 232.92C90.4019 233.06 89.8023 233.321 89.1967 233.712C88.6375 234.097 88.0855 234.665 87.5424 235.425C87.0471 236.134 86.6132 237.084 86.2485 238.286C85.9769 239.251 85.7803 240.426 85.6577 241.811C86.0379 241.41 86.4668 241.058 86.9448 240.756C87.6686 240.299 88.4319 239.955 89.2338 239.725L89.5483 239.631C90.2802 239.426 91.0008 239.323 91.7094 239.323C93.1133 239.323 94.4269 239.57 95.6479 240.066H95.6489C96.9094 240.562 98 241.307 98.9174 242.3L99.0874 242.484C99.9251 243.411 100.574 244.552 101.036 245.901L101.132 246.174C101.6 247.558 101.83 249.15 101.831 250.946C101.831 253.283 101.36 255.385 100.411 257.245C99.4629 259.103 98.1512 260.586 96.478 261.689L96.4741 261.692L96.4731 261.691C94.7941 262.759 92.8887 263.292 90.7641 263.292C88.2256 263.292 86.0498 262.589 84.2524 261.174C82.4627 259.765 81.1187 257.81 80.2143 255.324V255.322C79.3114 252.801 78.8628 249.858 78.8627 246.497C78.8627 242.395 79.4221 238.892 80.5502 235.996L80.5512 235.995C81.7138 233.069 83.2782 230.818 85.2534 229.261L85.2553 229.26C87.2698 227.702 89.5731 226.921 92.1547 226.921ZM113.403 253.868C113.798 254.99 114.294 255.88 114.885 256.545C115.722 257.487 116.759 257.953 118.014 257.953C119.269 257.953 120.306 257.487 121.143 256.545C121.991 255.592 122.642 254.176 123.081 252.274C123.52 250.373 123.742 248.041 123.742 245.274C123.742 244.065 123.695 242.941 123.609 241.903L113.403 253.868ZM90.8198 244.828C90.2974 244.828 89.793 244.914 89.3061 245.087C88.8474 245.264 88.3855 245.514 87.9194 245.836C87.4968 246.154 87.0878 246.544 86.6948 247.008C86.3491 247.423 86.0364 247.89 85.7553 248.41C85.6876 249.776 85.7625 251.03 85.977 252.174H85.976C86.1935 253.297 86.5364 254.287 87.0014 255.147C87.4656 255.968 88.0322 256.601 88.6967 257.056C89.3533 257.469 90.0775 257.675 90.8754 257.675C91.5337 257.675 92.1351 257.52 92.685 257.21C93.2396 256.898 93.729 256.464 94.1518 255.902C94.5748 255.302 94.8956 254.593 95.1108 253.768C95.3261 252.943 95.435 252.002 95.435 250.946C95.435 249.854 95.3074 248.94 95.06 248.198L95.059 248.194C94.8094 247.409 94.457 246.781 94.0083 246.297C93.5498 245.803 93.0428 245.438 92.4877 245.195C91.9265 244.949 91.3712 244.829 90.8198 244.828ZM118.014 232.594C116.763 232.594 115.727 233.076 114.888 234.054C114.038 235.046 113.385 236.482 112.946 238.384V238.386C112.507 240.249 112.286 242.544 112.286 245.274C112.286 246.53 112.334 247.696 112.425 248.773L122.613 236.753C122.219 235.637 121.727 234.739 121.139 234.054C120.301 233.076 119.265 232.594 118.014 232.594Z" fill="var(--fill-0, #C48203)" stroke="var(--stroke-0, black)" stroke-width="0.556122"/>
<path id="50" d="M110.513 271.766C111.634 271.766 112.6 272.097 113.404 272.764C114.223 273.429 114.848 274.379 115.285 275.607C115.723 276.819 115.94 278.27 115.94 279.956C115.94 281.461 115.774 282.772 115.44 283.889L115.285 284.356C114.848 285.551 114.221 286.469 113.402 287.101C112.598 287.733 111.632 288.048 110.513 288.048C109.393 288.048 108.419 287.733 107.599 287.101L107.598 287.1C106.896 286.547 106.334 285.776 105.912 284.791L105.74 284.356C105.303 283.143 105.085 281.676 105.085 279.956C105.085 278.27 105.302 276.82 105.739 275.608L105.912 275.161C106.334 274.147 106.894 273.347 107.595 272.765L107.596 272.764C108.416 272.097 109.391 271.766 110.513 271.766ZM108.449 283.802C108.626 284.305 108.847 284.704 109.112 285.002C109.486 285.424 109.951 285.633 110.513 285.633C111.075 285.633 111.538 285.424 111.913 285.002C112.293 284.575 112.585 283.942 112.781 283.09C112.978 282.239 113.077 281.195 113.077 279.956C113.077 279.415 113.056 278.912 113.017 278.447L108.449 283.802ZM110.513 274.28C109.953 274.28 109.489 274.496 109.113 274.934C108.733 275.378 108.441 276.021 108.244 276.872H108.243C108.047 277.707 107.948 278.734 107.948 279.956C107.948 280.519 107.969 281.041 108.01 281.523L112.57 276.143C112.394 275.643 112.175 275.241 111.912 274.934C111.537 274.496 111.073 274.28 110.513 274.28ZM95.5998 283.866C95.5998 283.982 95.6215 284.09 95.6642 284.19C95.707 284.29 95.8048 284.443 95.967 284.655C96.2533 284.94 96.5699 285.152 96.9162 285.293C97.2644 285.436 97.655 285.508 98.089 285.508C98.4387 285.508 98.7626 285.445 99.0617 285.319C99.3583 285.177 99.6071 284.982 99.8097 284.733L99.8127 284.729C100.034 284.476 100.209 284.175 100.337 283.823C100.465 283.472 100.529 283.096 100.529 282.695C100.529 282.242 100.464 281.842 100.337 281.493L100.335 281.487C100.223 281.12 100.057 280.812 99.8381 280.561L99.8322 280.555V280.554C99.6294 280.289 99.3721 280.087 99.0588 279.946L99.0568 279.945C98.761 279.805 98.4147 279.733 98.0148 279.733C97.7128 279.733 97.4095 279.78 97.1056 279.876L97.1008 279.878V279.877C96.7991 279.957 96.5213 280.084 96.2678 280.258L96.2658 280.259C96.0303 280.416 95.8077 280.631 95.5988 280.904L95.549 280.969L95.4689 280.949L93.7512 280.5L93.6506 280.474L93.6584 280.371L94.2306 272.106L94.2385 271.99H102.77V274.504H96.8117L96.6076 277.691C96.7595 277.624 96.922 277.559 97.0969 277.5C97.3532 277.398 97.6184 277.329 97.8918 277.294C98.1637 277.243 98.4211 277.218 98.6623 277.218C99.3732 277.218 100.02 277.336 100.602 277.576H100.601C101.182 277.798 101.687 278.141 102.114 278.602H102.113C102.542 279.048 102.866 279.602 103.086 280.263L103.17 280.515C103.352 281.113 103.443 281.774 103.443 282.495C103.443 283.625 103.206 284.61 102.729 285.446C102.27 286.277 101.64 286.925 100.84 287.384H100.839C100.054 287.828 99.1448 288.048 98.1144 288.048C97.0192 288.048 96.0212 287.837 95.1232 287.413H95.1222C94.237 286.988 93.5539 286.356 93.0763 285.52L93.0246 285.429L93.1056 285.363L95.0724 283.745L95.0763 283.741H95.0773L95.2756 283.591L95.3781 283.515L95.4523 283.619L95.5763 283.793L95.5998 283.826V283.866Z" fill="var(--fill-0, #FFF454)" stroke="var(--stroke-0, black)" stroke-width="0.248965"/>
</g>
</g>
</svg>
