<svg preserveAspectRatio="none" width="100%" height="100%" overflow="visible" style="display: block;" viewBox="0 0 23.6026 33.28" fill="none" xmlns="http://www.w3.org/2000/svg">
<g id="Mask group">
<mask id="mask0_0_21" style="mask-type:alpha" maskUnits="userSpaceOnUse" x="0" y="0" width="24" height="34">
<path id="3" d="M22.3793 0.319688V5.16734L22.2757 5.26207L15.0687 11.9017C19.7171 13.0416 23.2824 16.6103 23.2826 22.1019C23.2826 25.4167 21.9873 28.1394 19.8636 30.0296C17.7435 31.9166 14.815 32.9603 11.5648 32.9603C8.42519 32.9603 5.6114 31.9935 3.57945 30.1341C1.54374 28.2712 0.319688 25.5361 0.319688 22.0589V21.7396H6.37926V22.0589C6.37926 23.7983 6.91583 25.1299 7.82164 26.0257C8.72825 26.9224 10.0391 27.4164 11.6507 27.4164C13.3006 27.4164 14.6448 26.882 15.5755 25.9564C16.506 25.0309 17.0511 23.6865 17.0511 22.016C17.0511 20.4956 16.5595 19.2122 15.5736 18.306C14.5847 17.3971 13.0584 16.8314 10.9193 16.8314H6.77184V12.8011L6.87535 12.7054L14.3578 5.82066H1.78258V0.319688H22.3793Z" fill="var(--fill-0, #D9D9D9)" stroke="var(--stroke-0, black)" stroke-width="0.64"/>
</mask>
<g mask="url(#mask0_0_21)">
<g id="Frame 2147239364" filter="url(#filter0_f_0_21)">
<g id="Ellipse 4751" filter="url(#filter1_f_0_21)">
<circle cx="64.6341" cy="24.1204" r="82.6773" transform="rotate(89.6723 64.6341 24.1204)" fill="var(--fill-0, #4D55DE)"/>
</g>
<g id="Ellipse 4752" filter="url(#filter2_f_0_21)">
<circle cx="16.1388" cy="24.3975" r="21.4744" transform="rotate(89.6723 16.1388 24.3975)" fill="var(--fill-0, #EBE7EC)"/>
</g>
<g id="Ellipse 4749" filter="url(#filter3_f_0_21)">
<circle cx="-20.4014" cy="24.6056" r="40.4498" transform="rotate(89.6723 -20.4014 24.6056)" fill="var(--fill-0, #FFF1DA)" fill-opacity="0.9"/>
</g>
<g id="Ellipse 4750" filter="url(#filter4_f_0_21)">
<circle cx="-49.9056" cy="24.7744" r="44.7109" transform="rotate(89.6723 -49.9056 24.7744)" fill="var(--fill-0, #D67F9C)"/>
</g>
</g>
</g>
</g>
<defs>
<filter id="filter0_f_0_21" x="-180.267" y="-144.425" width="413.447" height="337.09" filterUnits="userSpaceOnUse" color-interpolation-filters="sRGB">
<feFlood flood-opacity="0" result="BackgroundImageFix"/>
<feBlend mode="normal" in="SourceGraphic" in2="BackgroundImageFix" result="shape"/>
<feGaussianBlur stdDeviation="42.6981" result="effect1_foregroundBlur_0_21"/>
</filter>
<filter id="filter1_f_0_21" x="-36.5514" y="-77.0651" width="202.371" height="202.371" filterUnits="userSpaceOnUse" color-interpolation-filters="sRGB">
<feFlood flood-opacity="0" result="BackgroundImageFix"/>
<feBlend mode="normal" in="SourceGraphic" in2="BackgroundImageFix" result="shape"/>
<feGaussianBlur stdDeviation="9.2541" result="effect1_foregroundBlur_0_21"/>
</filter>
<filter id="filter2_f_0_21" x="-23.8438" y="-15.5852" width="79.9653" height="79.9653" filterUnits="userSpaceOnUse" color-interpolation-filters="sRGB">
<feFlood flood-opacity="0" result="BackgroundImageFix"/>
<feBlend mode="normal" in="SourceGraphic" in2="BackgroundImageFix" result="shape"/>
<feGaussianBlur stdDeviation="9.2541" result="effect1_foregroundBlur_0_21"/>
</filter>
<filter id="filter3_f_0_21" x="-79.3594" y="-34.3524" width="117.916" height="117.916" filterUnits="userSpaceOnUse" color-interpolation-filters="sRGB">
<feFlood flood-opacity="0" result="BackgroundImageFix"/>
<feBlend mode="normal" in="SourceGraphic" in2="BackgroundImageFix" result="shape"/>
<feGaussianBlur stdDeviation="9.2541" result="effect1_foregroundBlur_0_21"/>
</filter>
<filter id="filter4_f_0_21" x="-151.43" y="-76.7497" width="203.048" height="203.048" filterUnits="userSpaceOnUse" color-interpolation-filters="sRGB">
<feFlood flood-opacity="0" result="BackgroundImageFix"/>
<feBlend mode="normal" in="SourceGraphic" in2="BackgroundImageFix" result="shape"/>
<feGaussianBlur stdDeviation="28.4066" result="effect1_foregroundBlur_0_21"/>
</filter>
</defs>
</svg>
