<svg preserveAspectRatio="none" width="100%" height="100%" overflow="visible" style="display: block;" viewBox="0 0 23.4776 33.2813" fill="none" xmlns="http://www.w3.org/2000/svg">
<g id="Mask group">
<mask id="mask0_0_11" style="mask-type:alpha" maskUnits="userSpaceOnUse" x="0" y="0" width="24" height="34">
<path id="2" d="M11.7407 0.319688C15.155 0.319688 17.9606 1.29481 19.9155 3.11559C21.8732 4.93908 22.9428 7.57819 22.9428 10.8334C22.9428 15.3677 20.4382 18.7618 15.6479 22.8617L10.6284 27.1586H23.1577V32.9164L22.8383 32.9173L1.03171 32.9603H0.711395V28.3627L0.824677 28.267L11.104 19.5785L11.8667 18.9213C13.5678 17.4287 14.7258 16.2177 15.479 15.0765C16.3307 13.7861 16.6684 12.5784 16.6684 11.1341C16.6683 9.40523 16.1996 8.09573 15.3735 7.22008C14.5497 6.34693 13.3305 5.86363 11.7407 5.86363C10.0997 5.86365 8.79454 6.43492 7.89011 7.46422C6.98096 8.49894 6.44718 10.0303 6.42624 11.9984L6.42331 12.3148H0.321747L0.3237 11.9925C0.345694 8.48352 1.477 5.5605 3.47995 3.51305C5.48376 1.46475 8.33373 0.319709 11.7407 0.319688Z" fill="var(--fill-0, #D9D9D9)" stroke="var(--stroke-0, black)" stroke-width="0.64"/>
</mask>
<g mask="url(#mask0_0_11)">
<g id="Frame 2147239364" filter="url(#filter0_f_0_11)">
<g id="Ellipse 4751" filter="url(#filter1_f_0_11)">
<circle cx="64.6381" cy="24.1205" r="82.6773" transform="rotate(89.6723 64.6381 24.1205)" fill="var(--fill-0, #4D55DE)"/>
</g>
<g id="Ellipse 4752" filter="url(#filter2_f_0_11)">
<circle cx="16.1428" cy="24.3975" r="21.4744" transform="rotate(89.6723 16.1428 24.3975)" fill="var(--fill-0, #EBE7EC)"/>
</g>
<g id="Ellipse 4749" filter="url(#filter3_f_0_11)">
<circle cx="-20.3974" cy="24.6057" r="40.4498" transform="rotate(89.6723 -20.3974 24.6057)" fill="var(--fill-0, #FFF1DA)" fill-opacity="0.9"/>
</g>
<g id="Ellipse 4750" filter="url(#filter4_f_0_11)">
<circle cx="-49.9016" cy="24.7744" r="44.7109" transform="rotate(89.6723 -49.9016 24.7744)" fill="var(--fill-0, #D67F9C)"/>
</g>
</g>
</g>
</g>
<defs>
<filter id="filter0_f_0_11" x="-180.263" y="-144.425" width="413.447" height="337.09" filterUnits="userSpaceOnUse" color-interpolation-filters="sRGB">
<feFlood flood-opacity="0" result="BackgroundImageFix"/>
<feBlend mode="normal" in="SourceGraphic" in2="BackgroundImageFix" result="shape"/>
<feGaussianBlur stdDeviation="42.6981" result="effect1_foregroundBlur_0_11"/>
</filter>
<filter id="filter1_f_0_11" x="-36.5474" y="-77.065" width="202.371" height="202.371" filterUnits="userSpaceOnUse" color-interpolation-filters="sRGB">
<feFlood flood-opacity="0" result="BackgroundImageFix"/>
<feBlend mode="normal" in="SourceGraphic" in2="BackgroundImageFix" result="shape"/>
<feGaussianBlur stdDeviation="9.2541" result="effect1_foregroundBlur_0_11"/>
</filter>
<filter id="filter2_f_0_11" x="-23.8398" y="-15.5851" width="79.9653" height="79.9653" filterUnits="userSpaceOnUse" color-interpolation-filters="sRGB">
<feFlood flood-opacity="0" result="BackgroundImageFix"/>
<feBlend mode="normal" in="SourceGraphic" in2="BackgroundImageFix" result="shape"/>
<feGaussianBlur stdDeviation="9.2541" result="effect1_foregroundBlur_0_11"/>
</filter>
<filter id="filter3_f_0_11" x="-79.3554" y="-34.3523" width="117.916" height="117.916" filterUnits="userSpaceOnUse" color-interpolation-filters="sRGB">
<feFlood flood-opacity="0" result="BackgroundImageFix"/>
<feBlend mode="normal" in="SourceGraphic" in2="BackgroundImageFix" result="shape"/>
<feGaussianBlur stdDeviation="9.2541" result="effect1_foregroundBlur_0_11"/>
</filter>
<filter id="filter4_f_0_11" x="-151.426" y="-76.7496" width="203.048" height="203.048" filterUnits="userSpaceOnUse" color-interpolation-filters="sRGB">
<feFlood flood-opacity="0" result="BackgroundImageFix"/>
<feBlend mode="normal" in="SourceGraphic" in2="BackgroundImageFix" result="shape"/>
<feGaussianBlur stdDeviation="28.4066" result="effect1_foregroundBlur_0_11"/>
</filter>
</defs>
</svg>
