<svg preserveAspectRatio="none" width="100%" height="100%" overflow="visible" style="display: block;" viewBox="0 0 37.3475 37.3475" fill="none" xmlns="http://www.w3.org/2000/svg">
<g id="blush-brush-02">
<path id="Vector" d="M18.6737 20.2299L23.3421 23.3422M18.6737 20.2299C11.703 24.5028 7.59662 23.0011 4.6684 21.5539C4.6684 24.789 5.72847 27.4959 7.30776 29.5668M18.6737 20.2299L23.3421 13.0934M23.3421 23.3422C23.0013 26.5125 20.8939 32.9671 15.8035 34.2352C12.9792 34.2352 9.59767 32.5695 7.30776 29.5668M23.3421 23.3422L27.3847 15.5615M7.30776 29.5668C8.92361 29.8262 12.885 29.878 15.8035 28.0106M23.3421 13.0934L29.2673 4.03571C29.7452 3.19319 30.8018 2.87169 31.6705 3.3045C32.5713 3.75335 32.9365 4.84494 32.486 5.74265L27.3847 15.5615M23.3421 13.0934L27.3847 15.5615" stroke="var(--stroke-0, #6C6CFF)" stroke-width="1.98408" stroke-linecap="round" stroke-linejoin="round"/>
<path id="Vector_2" d="M9.33683 6.22443L9.68086 7.15415C10.132 8.37326 10.3575 8.98284 10.8022 9.42751C11.2469 9.87216 11.8564 10.0977 13.0755 10.5488L14.0053 10.8929L13.0755 11.2369C11.8564 11.688 11.2469 11.9136 10.8022 12.3582C10.3575 12.8029 10.132 13.4125 9.68086 14.6316L9.33683 15.5613L8.9928 14.6316C8.54169 13.4125 8.31612 12.8029 7.87146 12.3582C7.4268 11.9136 6.81723 11.688 5.59811 11.2369L4.6684 10.8929L5.59811 10.5488C6.81723 10.0977 7.4268 9.87216 7.87146 9.42749C8.31612 8.98284 8.54169 8.37326 8.9928 7.15415L9.33683 6.22443Z" stroke="var(--stroke-0, #6C6CFF)" stroke-width="1.98408" stroke-linejoin="round"/>
</g>
</svg>
