<svg preserveAspectRatio="none" width="100%" height="100%" overflow="visible" style="display: block;" viewBox="0 0 160 160" fill="none" xmlns="http://www.w3.org/2000/svg">
<g id="vision">
<g id="Vector">
<path d="M16.42 100.426C19.1776 100.29 21.5247 102.415 21.6614 105.172C22.3483 119.031 24.399 126.038 29.179 130.818C33.9594 135.598 40.9661 137.651 54.8248 138.338C57.5828 138.475 59.7098 140.821 59.5731 143.579C59.4361 146.337 57.0891 148.462 54.3317 148.325C40.1949 147.625 29.7448 145.525 22.1083 137.889C14.4722 130.252 12.3723 119.804 11.6716 105.668C11.535 102.91 13.6619 100.563 16.42 100.426ZM143.581 100.426C146.339 100.563 148.464 102.91 148.327 105.668C147.626 119.804 145.526 130.252 137.891 137.889C130.254 145.525 119.806 147.624 105.669 148.325C102.912 148.462 100.565 146.337 100.428 143.579C100.291 140.821 102.416 138.475 105.174 138.338C119.033 137.651 126.039 135.598 130.82 130.818C135.6 126.037 137.653 119.031 138.34 105.172C138.477 102.414 140.823 100.289 143.581 100.426ZM54.3317 11.6697C57.0893 11.5335 59.4364 13.6603 59.5731 16.418C59.7092 19.1756 57.5825 21.5228 54.8248 21.6594C40.9661 22.3464 33.9594 24.3968 29.179 29.1771C24.3987 33.9574 22.3483 40.9642 21.6614 54.8229C21.5247 57.5806 19.1776 59.7073 16.42 59.5712C13.6622 59.4345 11.5355 57.0874 11.6716 54.3298C12.3723 40.1928 14.4717 29.7429 22.1083 22.1063C29.7449 14.4698 40.1948 12.3703 54.3317 11.6697ZM105.669 11.6697C119.806 12.3703 130.254 14.4703 137.891 22.1063C145.527 29.7429 147.626 40.1929 148.327 54.3298C148.464 57.0872 146.339 59.4342 143.581 59.5712C140.823 59.7079 138.477 57.5809 138.34 54.8229C137.653 40.9641 135.6 33.9574 130.82 29.1771C126.039 24.3971 119.033 22.3463 105.174 21.6594C102.416 21.5228 100.292 19.1757 100.428 16.418C100.565 13.66 102.911 11.533 105.669 11.6697Z" fill="url(#paint0_linear_0_46)"/>
<path d="M112.58 78.8965H101.722C98.8921 78.8965 98.4613 78.9526 98.1378 79.0682C97.8437 79.1733 97.5639 79.3248 97.3106 79.5204C97.0181 79.7462 96.7178 80.1088 95.152 82.5109C93.9818 84.3061 92.9349 85.9961 91.4651 87.2377L91.1657 87.4804C90.2452 88.1912 89.2197 88.7544 88.1248 89.1458C86.1738 89.8433 84.0664 89.7871 81.8239 89.7871H80.4248C78.1823 89.7871 76.075 89.8433 74.124 89.1458C73.1659 88.8033 72.2609 88.3295 71.4328 87.7404L71.083 87.4804C69.4522 86.2214 68.3448 84.4257 67.0968 82.5109C65.5311 80.1088 65.2305 79.7477 64.9382 79.522C64.6843 79.3261 64.4046 79.1732 64.111 79.0682C63.7873 78.9526 63.3558 78.8965 60.5265 78.8965H49.669C49.6666 79.9184 49.6627 80.9926 49.6627 82.1233C49.6627 89.08 49.6708 93.901 50.148 97.5312C50.6112 101.054 51.4511 102.843 52.6721 104.092C53.8808 105.328 55.5935 106.169 58.995 106.637C62.5227 107.122 67.2154 107.131 74.0247 107.131H88.224C95.0332 107.131 99.726 107.122 103.254 106.637C106.655 106.169 108.368 105.328 109.577 104.092C110.798 102.843 111.638 101.054 112.101 97.5312C112.578 93.901 112.586 89.08 112.586 82.1233C112.586 80.9926 112.582 79.9184 112.58 78.8965ZM74.0247 57.1153C67.2154 57.1153 62.5227 57.125 58.995 57.6101C55.5934 58.0779 53.8808 58.9186 52.6721 60.1547C51.451 61.4036 50.6111 63.1925 50.148 66.7155C49.9871 67.9392 49.8843 69.2988 49.8124 70.8294H60.5265C62.769 70.8294 64.8763 70.7732 66.8273 71.4707C67.9226 71.8622 68.9479 72.4255 69.8683 73.1361C71.4991 74.3951 72.6065 76.1908 73.8545 78.1055C75.4202 80.5075 75.7208 80.8688 76.0131 81.0945C76.2666 81.2902 76.5463 81.4431 76.8403 81.5482C77.1638 81.6639 77.5943 81.72 80.4248 81.72H81.8239C84.6545 81.72 85.0849 81.6639 85.4084 81.5482C85.7025 81.4431 85.9822 81.2918 86.2356 81.096L86.3491 80.9999C86.6237 80.7463 87.0253 80.2056 88.3942 78.1055C89.6422 76.1911 90.7488 74.395 92.3789 73.1361C93.2996 72.425 94.3263 71.8621 95.4214 71.4707C97.3724 70.7732 99.4798 70.8294 101.722 70.8294H112.438C112.366 69.2988 112.262 67.9393 112.101 66.7155C111.667 63.413 110.902 61.6342 109.802 60.3957L109.577 60.1547C108.368 58.9186 106.656 58.0779 103.254 57.6101C99.726 57.125 95.0332 57.1153 88.224 57.1153H74.0247ZM120.653 82.1233C120.653 88.8568 120.661 94.3038 120.099 98.5821C119.558 102.693 118.435 106.255 115.876 109.159L115.345 109.731C112.395 112.748 108.682 114.034 104.352 114.63C100.147 115.208 94.8001 115.198 88.224 115.198H74.0247C67.4486 115.198 62.1015 115.208 57.8968 114.63C53.5664 114.034 49.8535 112.748 46.9038 109.731C43.9666 106.727 42.7267 102.967 42.1502 98.5821C41.5878 94.3038 41.5956 88.8568 41.5956 82.1233C41.5956 79.6832 41.5954 77.412 41.6208 75.3041C41.605 75.1592 41.5956 75.0121 41.5956 74.8629C41.5956 74.6767 41.6137 74.4942 41.6381 74.3146C41.6933 71.0225 41.8239 68.1468 42.1502 65.6646C42.7267 61.2795 43.9667 57.5197 46.9038 54.5156C49.8535 51.4989 53.5664 50.2125 57.8968 49.617C62.1015 49.0389 67.4486 49.0482 74.0247 49.0482H88.224C94.8001 49.0482 100.147 49.0389 104.352 49.617C108.682 50.2125 112.395 51.4987 115.345 54.5156C118.282 57.5196 119.522 61.2795 120.099 65.6646C120.425 68.1468 120.555 71.0225 120.611 74.3146C120.635 74.4942 120.653 74.6767 120.653 74.8629C120.653 75.0121 120.644 75.1592 120.628 75.3041C120.653 77.412 120.653 79.6832 120.653 82.1233Z" fill="url(#paint1_linear_0_46)"/>
</g>
</g>
<defs>
<linearGradient id="paint0_linear_0_46" x1="11.6654" y1="79.9976" x2="148.334" y2="79.9976" gradientUnits="userSpaceOnUse">
<stop stop-color="#6367FF"/>
<stop offset="1" stop-color="#3B3E99"/>
</linearGradient>
<linearGradient id="paint1_linear_0_46" x1="11.6654" y1="79.9976" x2="148.334" y2="79.9976" gradientUnits="userSpaceOnUse">
<stop stop-color="#6367FF"/>
<stop offset="1" stop-color="#3B3E99"/>
</linearGradient>
</defs>
</svg>
